<svg version="1.1" id="Layer_1" xmlns="http://www.w3.org/2000/svg" xmlns:xlink="http://www.w3.org/1999/xlink" x="0px" y="0px"
	 width="100%" viewBox="0 0 792 792" enable-background="new 0 0 792 792" xml:space="preserve">
<path fill="#000000" opacity="0.000000" stroke="none" 
	d="
M793.000000,282.000000 
	C793.000000,452.666656 793.000000,622.833313 793.000000,793.000000 
	C529.000000,793.000000 265.000000,793.000000 1.000000,793.000000 
	C1.000000,529.000000 1.000000,265.000000 1.000000,1.000000 
	C265.000000,1.000000 529.000000,1.000000 793.000000,1.000000 
	C793.000000,94.500000 793.000000,188.000000 793.000000,282.000000 
M435.115234,5.002093 
	C415.089905,5.055556 395.064545,5.109020 374.107758,5.010917 
	C339.820801,5.004704 305.533844,4.976846 271.246918,5.001185 
	C253.442932,5.013825 235.638992,5.118741 216.933365,5.072252 
	C193.415329,5.039772 169.897263,4.989347 146.379288,5.017037 
	C144.884644,5.018797 143.390717,5.627447 140.973526,6.007099 
	C132.890594,6.344050 124.801773,6.577888 116.725998,7.039878 
	C100.952660,7.942223 86.255287,12.943406 72.048004,19.429401 
	C61.915413,24.055197 53.494205,31.181499 44.938095,38.266251 
	C34.991592,46.502293 26.872057,56.188526 20.673523,67.174660 
	C15.713115,75.966362 11.860877,85.660576 9.235125,95.416702 
	C6.435625,105.818420 5.319226,116.726013 4.119105,127.485382 
	C3.403909,133.897278 3.941409,140.448929 3.148162,147.357574 
	C3.097831,148.186111 3.003430,149.014633 3.003401,149.843170 
	C2.998084,300.201630 2.997207,450.560120 3.036364,600.918579 
	C3.036719,602.278931 3.576423,603.639221 4.016895,605.500549 
	C4.069360,605.667053 4.121826,605.833557 4.027080,606.821838 
	C4.074833,608.208069 4.122586,609.594238 4.036432,611.911804 
	C4.029324,622.408447 4.210106,632.909363 3.973782,643.400879 
	C3.554801,662.001221 4.876306,680.375610 9.981128,698.361145 
	C13.745207,711.622986 18.709517,724.216797 27.002499,735.511780 
	C36.519882,748.474487 47.781849,759.975830 60.906319,768.603027 
	C81.830772,782.357483 105.089386,790.883362 131.267578,790.813110 
	C131.926041,790.885559 132.584503,791.021423 133.242966,791.021423 
	C310.210297,791.029663 487.177612,791.030701 664.144958,790.985962 
	C665.478455,790.985657 666.811890,790.357727 669.055420,790.000305 
	C677.037476,789.174194 685.266663,789.307129 692.951355,787.326904 
	C710.183411,782.886536 726.376160,776.346130 740.463196,764.531067 
	C752.169678,754.712524 762.919434,744.267273 771.040833,731.474121 
	C784.214966,710.721863 789.556030,687.567810 790.798279,662.731812 
	C790.880188,661.575256 791.033691,660.418762 791.033752,659.262207 
	C791.041565,483.301331 791.040894,307.340454 790.994019,131.379593 
	C790.993652,129.871460 790.364929,128.363510 789.996399,125.952446 
	C789.670532,121.872841 789.365417,117.791443 789.015076,113.713936 
	C787.806885,99.654579 783.467224,86.470367 777.366516,73.876083 
	C767.853027,54.236477 753.064331,39.097244 735.398071,26.760664 
	C715.354553,12.763980 692.456299,6.430421 668.425293,6.211933 
	C602.653748,5.613943 536.873535,5.966127 470.676453,5.165858 
	C459.132385,5.168583 447.588287,5.171309 435.115234,5.002093 
z"/>
<path fill="#3F85DD" opacity="1.000000" stroke="none" 
	d="
M3.915755,146.937744 
	C3.941409,140.448929 3.403909,133.897278 4.119105,127.485382 
	C5.319226,116.726013 6.435625,105.818420 9.235125,95.416702 
	C11.860877,85.660576 15.713115,75.966362 20.673523,67.174660 
	C26.872057,56.188526 34.991592,46.502293 44.938095,38.266251 
	C53.494205,31.181499 61.915413,24.055197 72.048004,19.429401 
	C86.255287,12.943406 100.952660,7.942223 116.725998,7.039878 
	C124.801773,6.577888 132.890594,6.344050 141.908630,6.018317 
	C166.045471,5.951759 189.247284,5.887142 212.448853,5.770456 
	C214.245178,5.761422 216.039688,5.386717 217.835037,5.181972 
	C235.638992,5.118741 253.442932,5.013825 271.246918,5.001185 
	C305.533844,4.976846 339.820801,5.004704 374.941711,5.261746 
	C395.919891,5.610526 416.064117,5.708476 436.658997,5.807734 
	C448.438690,5.853389 459.767731,5.897735 471.096771,5.942080 
	C536.873535,5.966127 602.653748,5.613943 668.425293,6.211933 
	C692.456299,6.430421 715.354553,12.763980 735.398071,26.760664 
	C753.064331,39.097244 767.853027,54.236477 777.366516,73.876083 
	C783.467224,86.470367 787.806885,99.654579 789.015076,113.713936 
	C789.365417,117.791443 789.670532,121.872841 789.990234,126.880951 
	C789.997925,226.950439 790.016113,326.091400 790.024048,425.232391 
	C790.030396,504.544556 790.024231,583.856750 790.023621,663.168884 
	C789.556030,687.567810 784.214966,710.721863 771.040833,731.474121 
	C762.919434,744.267273 752.169678,754.712524 740.463196,764.531067 
	C726.376160,776.346130 710.183411,782.886536 692.951355,787.326904 
	C685.266663,789.307129 677.037476,789.174194 668.144775,789.972778 
	C665.104004,789.906433 662.973816,789.867615 660.492920,789.647888 
	C654.457947,789.615723 648.773621,789.764404 642.692749,789.944824 
	C641.501282,789.954651 640.706543,789.932739 639.621155,789.729248 
	C637.582947,789.669373 635.835266,789.790955 633.691528,789.944397 
	C632.501770,789.952637 631.708130,789.928955 630.702271,789.749695 
	C629.688660,789.697449 628.887390,789.800842 627.688232,789.936523 
	C626.493225,789.945374 625.695984,789.921936 624.565796,789.709351 
	C621.187439,789.647949 618.142029,789.775818 614.648010,789.940002 
	C612.100159,789.952271 610.001038,789.928223 607.559082,789.712402 
	C603.506531,789.652344 599.796814,789.784058 595.726257,789.942139 
	C594.883606,789.953125 594.401794,789.937805 593.593018,789.731689 
	C590.534241,789.671692 587.802368,789.802368 584.678345,789.964844 
	C583.500488,789.975281 582.714722,789.953979 581.577026,789.732910 
	C571.175415,789.664673 561.125732,789.796143 550.661194,789.961792 
	C549.137573,789.971619 548.028809,789.947388 546.568481,789.724670 
	C534.771729,789.352051 523.326782,789.131042 511.880890,789.049438 
	C509.946808,789.035645 508.008392,789.622559 505.712708,789.953918 
	C504.874390,789.952881 504.395294,789.929810 503.702942,789.750610 
	C502.685394,789.701782 501.881073,789.809082 500.663696,789.954285 
	C499.145721,789.972778 498.040802,789.953369 496.689026,789.760254 
	C495.324310,789.692627 494.206482,789.798767 492.620117,789.941528 
	C488.071930,789.956909 483.992279,789.935730 479.561279,789.717590 
	C472.171783,789.649170 465.133575,789.777710 457.664734,789.942871 
	C455.794891,789.959229 454.355682,789.939026 452.568481,789.722961 
	C447.845978,789.652710 443.471497,789.778442 438.699463,789.936890 
	C437.505005,789.950623 436.708099,789.931641 435.563416,789.717590 
	C430.840393,789.652405 426.465149,789.782349 421.659363,789.948853 
	C419.790009,789.962036 418.351227,789.938599 416.564606,789.719971 
	C411.840485,789.654663 407.464172,789.784729 402.657104,789.949829 
	C400.787201,789.957886 399.348083,789.930786 397.664124,789.734985 
	C396.314301,789.673218 395.209259,789.780151 393.654541,789.921387 
	C391.101624,789.926697 388.998474,789.897705 386.731140,789.748962 
	C386.076294,789.713928 385.585571,789.798645 384.695190,789.916504 
	C383.494507,789.924866 382.693512,789.899963 381.683441,789.723999 
	C380.686737,789.672791 379.899139,789.772644 378.648865,789.911865 
	C375.092590,789.923645 371.998962,789.896179 368.812103,789.808960 
	C368.498810,789.669006 368.294189,789.704407 367.631470,789.898743 
	C364.826996,789.974243 362.496094,790.034546 360.165192,790.034546 
	C283.725952,790.033752 207.286697,790.027161 130.847443,790.021484 
	C105.089386,790.883362 81.830772,782.357483 60.906319,768.603027 
	C47.781849,759.975830 36.519882,748.474487 27.002499,735.511780 
	C18.709517,724.216797 13.745207,711.622986 9.981128,698.361145 
	C4.876306,680.375610 3.554801,662.001221 3.973782,643.400879 
	C4.210106,632.909363 4.029324,622.408447 4.265928,611.159058 
	C4.388380,608.937561 4.281336,607.468811 4.174292,606.000122 
	C4.121826,605.833557 4.069360,605.667053 3.969577,604.829468 
	C3.980186,602.750854 4.038113,601.343201 4.222706,599.765869 
	C4.265369,599.085876 4.181365,598.575623 4.050805,597.628723 
	C4.033165,595.437256 4.062081,593.682434 4.268839,591.654541 
	C4.331299,589.947205 4.215918,588.512817 4.054170,586.606873 
	C4.035731,565.401184 4.063659,544.667053 4.249452,523.718323 
	C4.304291,522.693176 4.201266,521.882751 4.052733,520.660767 
	C4.036467,519.147278 4.065707,518.045349 4.161058,516.840393 
	C4.315299,516.493652 4.273738,516.268311 4.056046,515.597778 
	C4.039204,511.403473 4.068803,507.672729 4.163994,503.838257 
	C4.315622,503.489288 4.271720,503.263702 4.049665,502.587646 
	C4.041603,495.388153 4.081754,488.658783 4.184242,481.827698 
	C4.327538,481.487030 4.283981,481.267456 4.068342,480.596375 
	C4.043591,443.730499 4.066406,407.335388 4.217826,370.770386 
	C4.262080,370.087891 4.177730,369.575317 4.046991,368.594238 
	C4.031638,363.394409 4.062674,358.663086 4.251486,353.716125 
	C4.301602,352.688232 4.193942,351.875946 4.049819,350.710022 
	C4.037089,349.883514 4.060821,349.410675 4.244100,348.721741 
	C4.295552,347.690033 4.187458,346.874420 4.036977,345.670105 
	C4.023156,344.501221 4.051720,343.721008 4.240989,342.725342 
	C4.296133,341.694122 4.190572,340.878357 4.050258,339.707886 
	C4.039900,338.879211 4.064297,338.405243 4.260363,337.683105 
	C4.320944,336.314911 4.209856,335.194855 4.050756,333.619629 
	C4.028394,330.421387 4.054044,327.678284 4.264585,324.642517 
	C4.327230,322.589081 4.204983,320.828308 4.036938,318.642212 
	C4.020661,316.793121 4.050184,315.369385 4.209506,313.774719 
	C4.253941,313.088104 4.168575,312.572388 4.037105,311.586548 
	C4.023764,304.722504 4.056527,298.328522 4.247720,291.719543 
	C4.301782,290.692444 4.197414,289.880371 4.046225,288.597321 
	C4.033567,278.058167 4.067731,267.989960 4.271706,257.672729 
	C4.322102,256.304077 4.202688,255.184479 4.034983,253.628937 
	C4.026350,251.440979 4.066008,249.688965 4.169477,247.834412 
	C4.317242,247.490707 4.275124,247.268051 4.055862,246.594147 
	C4.033341,240.394211 4.061895,234.663971 4.248867,228.718384 
	C4.301431,227.690460 4.195576,226.877884 4.044159,225.595032 
	C4.031018,219.393356 4.063437,213.661942 4.253280,207.715454 
	C4.304983,206.689758 4.199264,205.879105 4.047780,204.597412 
	C3.973262,185.063477 3.944509,166.000610 3.915755,146.937744 
M377.996368,416.966827 
	C377.996368,416.966827 377.933228,416.967438 378.613220,416.631775 
	C379.335754,411.429565 380.129486,406.234924 380.685333,401.014984 
	C380.750397,400.404053 379.503845,399.653473 378.672089,398.053284 
	C378.734100,392.721558 378.796082,387.389801 379.235596,381.600281 
	C379.111908,380.716431 378.988220,379.832581 378.686554,378.324982 
	C378.744263,377.900574 378.801971,377.476196 379.458923,376.598816 
	C381.755768,373.536499 381.806549,370.634003 378.647827,367.032532 
	C378.695526,349.385742 378.743256,331.738922 379.262299,313.426239 
	C378.867523,310.284393 378.472748,307.142517 377.864990,303.539032 
	C377.882111,303.370392 377.899200,303.201782 378.281647,302.547943 
	C377.603455,301.364532 376.925262,300.181122 375.802795,298.568604 
	C375.186493,297.749054 374.570160,296.929504 373.798462,295.417480 
	C371.871796,293.999115 370.122375,291.830627 367.980194,291.324524 
	C363.990112,290.381805 359.767273,290.045807 355.648590,290.092712 
	C339.723663,290.274109 323.802063,290.944519 307.878296,290.978027 
	C291.787140,291.011932 275.695251,290.465973 259.602356,290.321747 
	C258.399841,290.310974 257.186737,291.486328 255.334824,292.240204 
	C254.900269,292.204010 254.465698,292.167816 253.802185,291.584106 
	C250.648575,289.488037 249.375595,291.866302 247.593719,294.542358 
	C242.152237,298.781189 240.309006,304.400604 240.325745,311.202362 
	C240.409744,345.324890 240.395737,379.449066 240.106506,413.570007 
	C240.038239,421.622528 243.120987,427.222931 250.443588,431.439209 
	C251.034271,431.607361 251.624954,431.775482 252.640945,431.941711 
	C252.640945,431.941711 253.039368,432.090546 253.732925,432.532928 
	C255.872726,432.706512 258.012421,433.028870 260.152374,433.030762 
	C283.444183,433.051422 306.736053,433.021912 330.959534,432.998932 
	C341.503784,432.655151 352.067749,432.576141 362.579437,431.794250 
	C365.455292,431.580261 368.174286,429.257538 371.341492,427.374329 
	C372.671356,426.248169 374.001221,425.122009 375.847260,423.769257 
	C376.300323,422.536072 376.753418,421.302917 377.184753,419.248840 
	C377.379608,418.744324 377.574493,418.239777 377.850006,417.467102 
	C377.901367,417.286011 377.938110,417.101990 377.996368,416.966827 
M685.158264,181.041489 
	C658.468994,181.041489 631.779663,181.041489 605.090393,181.041489 
	C620.389465,181.924072 635.687378,181.874619 650.984802,181.940308 
	C662.472778,181.989639 673.960083,182.186905 684.619934,182.601761 
	C683.121826,182.645554 681.623718,182.724686 680.125549,182.728073 
	C601.329773,182.906067 522.534058,183.093323 443.738281,183.238617 
	C424.659607,183.273804 417.363647,190.410324 417.326172,209.216827 
	C417.092224,326.660217 416.817993,444.103546 416.643524,561.546997 
	C416.625916,573.393494 421.523529,582.447205 433.423279,587.732361 
	C434.941223,588.171509 436.458801,588.992920 437.977142,588.994202 
	C481.566864,589.032043 525.156738,589.009766 568.746216,588.875183 
	C570.491028,588.869812 572.232117,587.673401 574.635986,586.772644 
	C575.500061,585.518311 577.086548,584.275391 577.106567,583.007690 
	C577.209045,576.519348 577.042236,570.016724 576.659851,563.537354 
	C576.554321,561.748840 575.385620,560.023193 574.615723,557.727844 
	C565.155823,557.727844 555.695862,557.727844 549.202820,557.727844 
	C552.809265,557.900391 559.380066,558.214661 565.047913,558.769165 
	C552.357971,558.837524 539.667969,558.905884 526.515015,558.674622 
	C525.678955,558.786499 524.842834,558.898315 523.348145,559.228882 
	C522.896912,559.157959 522.445679,559.087036 521.274536,558.617676 
	C520.135132,558.424927 518.996033,558.066956 517.856201,558.064392 
	C502.690582,558.030090 487.524750,558.020569 472.359344,558.088928 
	C470.914154,558.095459 469.471527,558.666199 467.136200,559.185364 
	C464.092010,559.118347 461.047852,559.051331 457.627655,558.332886 
	C456.428772,557.904541 455.257294,557.237122 454.025482,557.095886 
	C451.182556,556.770020 446.773895,557.730469 445.805511,556.287048 
	C444.304352,554.049683 445.134460,550.244019 444.991913,547.102539 
	C444.961853,546.438965 444.999725,545.772339 444.991302,544.156494 
	C444.994354,435.408813 444.995697,326.661133 445.016510,217.913452 
	C445.016846,216.259247 445.258270,214.605057 445.507874,212.954544 
	C445.507874,212.954544 445.622467,212.992584 446.635986,213.023422 
	C511.114227,213.017166 575.592468,213.010895 640.998840,212.976013 
	C659.659119,212.972031 678.319458,212.966568 696.979736,212.964767 
	C705.037354,212.963974 705.047607,212.967407 705.047791,220.854004 
	C705.050781,330.816803 705.050781,440.779572 705.050720,550.742371 
	C705.050720,551.742004 704.999268,552.743408 705.042236,553.740967 
	C705.166199,556.616699 703.982666,558.187805 700.238892,557.552246 
	C690.794128,557.361206 681.349915,557.079468 671.904419,557.028687 
	C668.636658,557.011108 665.365906,557.567749 662.050476,558.480103 
	C662.046997,558.686646 662.043457,558.893188 662.346191,559.672729 
	C671.546448,568.103333 680.739990,576.541321 689.958191,584.952271 
	C690.807922,585.727600 691.810120,586.915283 692.748901,586.922302 
	C700.656128,586.982056 708.788208,587.938416 716.417969,586.428589 
	C726.301208,584.472961 730.286804,575.866394 733.737793,566.591553 
	C734.160889,564.057129 734.952759,561.522949 734.954041,558.988342 
	C735.013489,441.812927 735.004333,324.637512 734.997925,207.462112 
	C734.997803,205.966339 734.945251,204.469406 734.830383,202.979706 
	C734.826355,202.927826 733.886230,202.948135 733.028137,202.254593 
	C730.309387,192.087265 724.482910,184.891510 713.253662,181.743195 
	C704.205139,181.525757 695.156555,181.308319 685.158264,181.041489 
M659.280334,239.111145 
	C658.512695,239.059326 657.745056,239.007507 656.279785,238.521637 
	C655.301453,238.355316 654.323364,238.046036 653.344666,238.043976 
	C637.014648,238.009537 620.684570,237.990143 604.354675,238.049423 
	C602.913330,238.054642 601.474060,238.629456 599.107178,239.115982 
	C593.064209,239.046005 587.021179,238.976028 580.481201,238.323730 
	C578.766907,237.886322 577.053589,237.071716 575.338196,237.067291 
	C542.644165,236.983170 509.949738,236.965546 477.255829,237.066086 
	C475.507782,237.071457 473.763336,238.238815 471.397064,239.193497 
	C464.141876,242.643677 465.639099,249.417847 465.525970,255.361908 
	C465.359497,264.111023 468.095490,266.690460 476.711365,266.796326 
	C478.708160,266.820862 480.705811,266.766510 482.702728,266.786713 
	C498.498016,266.946472 514.293213,267.115570 530.525574,267.868134 
	C532.085510,268.232056 533.644836,268.911133 535.205383,268.914001 
	C579.785889,268.995880 624.366516,269.030853 668.946899,268.966125 
	C670.957581,268.963226 672.966858,267.957855 675.523315,267.022156 
	C679.352600,265.667389 683.804749,265.222931 685.372864,260.491547 
	C688.002625,252.556885 685.638733,243.939545 678.711243,238.738144 
	C672.485840,238.805038 666.260437,238.871933 659.280334,239.111145 
M90.345863,432.316010 
	C90.924782,432.542297 91.503357,432.965332 92.082672,432.966339 
	C109.830795,432.997253 127.579102,433.012115 145.326874,432.925049 
	C146.495987,432.919312 147.661041,432.086823 149.735016,431.307251 
	C165.183777,431.154755 180.649490,430.506958 196.074997,431.034485 
	C205.404205,431.353546 211.427917,428.216003 214.984253,419.634338 
	C214.945129,418.732819 214.905991,417.831268 214.626068,416.235565 
	C214.706757,413.815735 214.787445,411.395905 215.326462,408.287659 
	C215.147964,401.144165 214.969482,394.000641 214.614563,386.503845 
	C214.614563,386.503845 214.785400,386.147797 215.269623,385.440308 
	C215.510101,383.986053 215.957397,382.532227 215.960205,381.077515 
	C216.005951,357.319763 216.029678,333.561707 215.922272,309.804352 
	C215.914978,308.187836 214.827682,306.576172 213.858276,304.372009 
	C212.035294,297.091522 206.759415,293.779144 199.420914,291.786560 
	C197.970459,291.931976 196.519989,292.077423 194.307053,292.480316 
	C190.947205,292.408813 187.587341,292.337280 184.505127,291.965240 
	C184.557587,291.819336 184.666534,291.665039 184.646408,291.529907 
	C184.626801,291.398193 184.475601,291.180817 184.381577,291.180481 
	C179.277145,291.163483 174.172668,291.165405 169.068192,291.165405 
	C169.069855,291.333984 169.071518,291.502533 169.073196,291.671112 
	C173.297577,291.877960 177.521973,292.084778 180.875732,292.544586 
	C172.336029,292.471283 163.796310,292.398010 155.968842,292.103607 
	C158.632645,291.967804 161.296463,291.832001 163.960266,291.696167 
	C163.947449,291.539032 163.934631,291.381927 163.921814,291.224792 
	C143.608765,291.224792 123.295731,291.224792 102.982689,291.224792 
	C102.979515,291.364990 102.976341,291.505188 102.973167,291.645416 
	C107.567146,291.865295 112.161118,292.085175 115.882668,292.554657 
	C108.403496,292.509186 100.923836,292.388397 93.445290,292.437927 
	C84.713112,292.495758 79.108948,297.395874 77.811279,306.064850 
	C77.468666,308.353668 77.374138,310.697388 77.369354,313.016296 
	C77.301094,346.095825 77.303276,379.175568 77.206779,412.255005 
	C77.173431,423.686798 79.770073,427.717133 90.345863,432.316010 
M197.842972,268.053589 
	C203.577164,268.751068 208.884567,267.207275 211.812393,262.340271 
	C213.992142,258.716797 215.366745,254.005035 215.375046,249.774551 
	C215.443237,215.047394 215.016708,180.319565 214.961319,145.591614 
	C214.948486,137.552658 210.903442,133.012314 203.304077,129.746933 
	C201.857956,129.492203 200.412125,129.016907 198.965668,129.015030 
	C163.358932,128.968933 127.752083,128.953293 92.145462,129.029465 
	C90.452232,129.033096 88.760925,129.929550 86.619461,130.878036 
	C80.197495,134.141251 77.991058,139.698639 77.990395,146.530579 
	C77.986908,182.333389 77.803055,218.137772 78.169502,253.936600 
	C78.206406,257.541992 80.660698,262.254974 83.529068,264.400879 
	C86.817047,266.860687 91.791801,267.896454 96.081833,268.032257 
	C109.556465,268.458801 123.053780,268.135620 136.542114,268.171509 
	C152.347382,268.213562 168.152466,268.327789 183.227936,268.778381 
	C171.084183,268.890930 158.940628,269.062683 146.796631,269.101868 
	C129.515594,269.157623 112.234245,269.116028 94.953033,269.116028 
	C94.953583,269.334351 94.954132,269.552643 94.954681,269.770966 
	C130.645706,269.770966 166.336731,269.770966 202.887985,269.770966 
	C200.383224,269.148224 198.692444,268.727844 197.842972,268.053589 
M249.545532,130.986618 
	C242.210663,134.222610 240.247009,140.407654 240.241684,147.744217 
	C240.217041,181.742249 240.171616,215.740280 240.107712,249.738266 
	C240.084137,262.281525 245.824631,268.051056 258.449127,268.047333 
	C292.943390,268.037170 327.437622,268.020325 361.931885,268.011932 
	C370.209381,268.009918 375.840576,263.537354 377.542297,255.384674 
	C378.050262,252.951111 378.371094,250.430298 378.379883,247.948059 
	C378.497955,214.619720 378.628021,181.290955 378.549194,147.962784 
	C378.530853,140.204987 375.993713,133.511902 367.309937,129.833466 
	C365.872192,129.555771 364.434784,129.037567 362.996643,129.035553 
	C327.012146,128.984985 291.027496,128.967453 255.043137,129.050644 
	C253.368713,129.054504 251.696579,130.044312 249.545532,130.986618 
M584.315247,485.902649 
	C611.401794,479.555908 630.998291,464.334930 640.159790,437.528900 
	C647.751831,415.315216 643.599365,393.496826 632.998108,373.771149 
	C622.512817,354.261078 604.641663,342.583405 582.512024,338.803680 
	C557.754456,334.575073 536.246948,341.198273 517.686218,358.516174 
	C505.936432,369.479187 499.307861,382.454529 498.281860,398.275665 
	C497.776062,406.075378 497.432770,413.989197 498.152405,421.745941 
	C500.649353,448.660370 512.941101,469.053986 538.554382,480.128601 
	C552.977112,486.364655 567.866943,488.849304 584.315247,485.902649 
M601.584595,659.891174 
	C605.547241,662.239258 607.895386,659.171692 610.199951,657.013306 
	C617.937378,649.766602 625.488037,642.320618 633.577087,634.499390 
	C634.516785,636.567932 635.222900,638.194763 635.987427,639.793640 
	C642.017456,652.403992 648.128174,664.976440 654.058105,677.633606 
	C656.092651,681.976257 658.816406,682.635193 662.776794,680.297913 
	C666.787292,677.931091 670.958069,675.832458 674.936646,673.415588 
	C679.929565,670.382385 680.248352,668.985901 677.501526,663.676697 
	C673.599976,656.135803 669.423950,648.728027 665.773682,641.068665 
	C662.727661,634.677185 660.269165,628.005798 657.173645,620.551025 
	C660.312622,620.703003 662.256165,620.669739 664.164917,620.911255 
	C673.233521,622.059082 682.276428,623.449890 691.369507,624.330444 
	C693.107361,624.498779 695.986877,623.193909 696.623718,621.790222 
	C697.410522,620.055847 696.760620,617.384338 696.053284,615.354065 
	C695.550781,613.912170 693.998901,612.783813 692.791199,611.647522 
	C664.906250,585.411621 637.007507,559.190369 609.099976,532.978516 
	C606.621521,530.650696 603.559448,527.864990 600.435791,530.377319 
	C598.440369,531.982239 597.207275,535.699219 597.220398,538.461731 
	C597.401489,576.421631 597.811401,614.380859 598.361023,652.337463 
	C598.395752,654.734497 600.046814,657.108154 601.584595,659.891174 
M189.807968,291.176300 
	C189.895859,291.381134 189.982483,291.760834 190.071869,291.761444 
	C190.530243,291.764771 190.989334,291.670532 192.243423,291.506073 
	C191.028687,291.258026 190.594772,291.169403 189.807968,291.176300 
z"/>
<path fill="#7BAAE5" opacity="1.000000" stroke="none" 
	d="
M503.916229,789.906738 
	C504.395294,789.929810 504.874390,789.952881 506.173401,789.976074 
	C520.302246,789.958557 533.611145,789.940796 546.920044,789.923096 
	C548.028809,789.947388 549.137573,789.971619 551.121399,789.986633 
	C561.973999,789.962463 571.951477,789.947510 581.929016,789.932617 
	C582.714722,789.953979 583.500488,789.975281 585.118958,789.988037 
	C588.607788,789.960388 591.263855,789.941406 593.919922,789.922424 
	C594.401794,789.937805 594.883606,789.953125 596.176880,789.964661 
	C600.626160,789.941956 604.263977,789.923035 607.901855,789.904175 
	C610.001038,789.928223 612.100159,789.952271 615.090393,789.964844 
	C618.953918,789.935059 621.926331,789.916809 624.898804,789.898560 
	C625.695984,789.921936 626.493225,789.945374 628.041016,789.958984 
	C629.499268,789.934570 630.206909,789.919922 630.914551,789.905334 
	C631.708130,789.928955 632.501770,789.952637 634.105774,789.968140 
	C636.581360,789.943665 638.246582,789.927246 639.911743,789.910828 
	C640.706543,789.932739 641.501282,789.954651 643.150879,789.968750 
	C649.618286,789.916931 655.230957,789.872864 660.843628,789.828796 
	C662.973816,789.867615 665.104004,789.906433 667.689758,789.984070 
	C666.811890,790.357727 665.478455,790.985657 664.144958,790.985962 
	C487.177612,791.030701 310.210297,791.029663 133.242966,791.021423 
	C132.584503,791.021423 131.926041,790.885559 131.057510,790.417297 
	C207.286697,790.027161 283.725952,790.033752 360.165192,790.034546 
	C362.496094,790.034546 364.826996,789.974243 367.830933,789.914856 
	C368.503998,789.887573 368.905304,789.868774 368.905304,789.868774 
	C371.998962,789.896179 375.092590,789.923645 378.995361,789.938477 
	C380.500488,789.908875 381.196503,789.891968 381.892517,789.875122 
	C382.693512,789.899963 383.494507,789.924866 384.994873,789.932495 
	C386.094574,789.899719 386.494934,789.884155 386.895294,789.868652 
	C388.998474,789.897705 391.101624,789.926697 394.033508,789.949768 
	C395.877777,789.930420 396.893372,789.916992 397.908936,789.903625 
	C399.348083,789.930786 400.787201,789.957886 403.111938,789.975159 
	C408.302490,789.948608 412.607452,789.931946 416.912445,789.915283 
	C418.351227,789.938599 419.790009,789.962036 422.114014,789.972900 
	C427.303253,789.944458 431.607208,789.928589 435.911194,789.912720 
	C436.708099,789.931641 437.505005,789.950623 439.153473,789.961304 
	C444.308838,789.941589 448.612671,789.930237 452.916473,789.918884 
	C454.355682,789.939026 455.794891,789.959229 458.122986,789.967651 
	C465.978790,789.942139 472.945709,789.928345 479.912598,789.914551 
	C483.992279,789.935730 488.071930,789.956909 493.003326,789.969849 
	C494.881989,789.952454 495.908966,789.943237 496.935913,789.934021 
	C498.040802,789.953369 499.145721,789.972778 501.017944,789.974365 
	C502.495605,789.940002 503.205933,789.923401 503.916229,789.906738 
z"/>
<path fill="#5794E1" opacity="1.000000" stroke="none" 
	d="
M790.410950,662.950317 
	C790.024231,583.856750 790.030396,504.544556 790.024048,425.232391 
	C790.016113,326.091400 789.997925,226.950439 790.006836,127.332458 
	C790.364929,128.363510 790.993652,129.871460 790.994019,131.379593 
	C791.040894,307.340454 791.041565,483.301331 791.033752,659.262207 
	C791.033691,660.418762 790.880188,661.575256 790.410950,662.950317 
z"/>
<path fill="#8CB6E8" opacity="1.000000" stroke="none" 
	d="
M4.088693,337.931274 
	C4.064297,338.405243 4.039900,338.879211 4.019851,340.066803 
	C4.042893,341.500549 4.061589,342.220673 4.080284,342.940796 
	C4.051720,343.721008 4.023156,344.501221 4.008821,346.029327 
	C4.043552,347.497437 4.064053,348.217621 4.084553,348.937836 
	C4.060821,349.410675 4.037089,349.883514 4.021560,351.067810 
	C4.051078,352.496765 4.072393,353.214264 4.093709,353.931763 
	C4.062674,358.663086 4.031638,363.394409 4.019728,368.906586 
	C4.055643,370.105072 4.072432,370.522675 4.089221,370.940308 
	C4.066406,407.335388 4.043591,443.730499 4.053646,480.811890 
	C4.086516,481.498230 4.121906,481.929382 4.121906,481.929382 
	C4.081754,488.658783 4.041603,495.388153 4.034145,502.808594 
	C4.066840,503.499603 4.098403,503.941986 4.098403,503.941986 
	C4.068803,507.672729 4.039204,511.403473 4.038141,515.817993 
	C4.066678,516.501831 4.094946,516.943420 4.094947,516.943420 
	C4.065707,518.045349 4.036467,519.147278 4.021381,521.017334 
	C4.054219,522.501343 4.072903,523.217163 4.091586,523.932983 
	C4.063659,544.667053 4.035731,565.401184 4.022285,587.009644 
	C4.054843,589.231873 4.072920,590.579712 4.090997,591.927612 
	C4.062081,593.682434 4.033165,595.437256 4.025454,597.939941 
	C4.063119,599.103699 4.079580,599.519653 4.096040,599.935608 
	C4.038113,601.343201 3.980186,602.750854 3.893288,604.578979 
	C3.576423,603.639221 3.036719,602.278931 3.036364,600.918579 
	C2.997207,450.560120 2.998084,300.201630 3.003401,149.843170 
	C3.003430,149.014633 3.097831,148.186111 3.531959,147.147659 
	C3.944509,166.000610 3.973262,185.063477 4.018599,204.954376 
	C4.055407,206.498459 4.075632,207.214493 4.095857,207.930527 
	C4.063437,213.661942 4.031018,219.393356 4.014870,225.952820 
	C4.050910,227.498505 4.070679,228.216125 4.090448,228.933746 
	C4.061895,234.663971 4.033341,240.394211 4.039846,246.812256 
	C4.074904,247.500061 4.105666,247.936951 4.105665,247.936951 
	C4.066008,249.688965 4.026350,251.440979 4.005045,254.013824 
	C4.049562,255.863693 4.075728,256.892731 4.101895,257.921753 
	C4.067731,267.989960 4.033567,278.058167 4.016198,288.954773 
	C4.051759,290.500305 4.070525,291.217438 4.089291,291.934570 
	C4.056527,298.328522 4.023764,304.722504 4.011633,311.900879 
	C4.048079,313.105408 4.063892,313.525513 4.079705,313.945618 
	C4.050184,315.369385 4.020661,316.793121 4.005463,319.059814 
	C4.039755,321.580200 4.059724,323.257690 4.079693,324.935181 
	C4.054044,327.678284 4.028394,330.421387 4.017241,334.004089 
	C4.050723,335.872894 4.069708,336.902100 4.088693,337.931274 
z"/>
<path fill="#7BAAE5" opacity="1.000000" stroke="none" 
	d="
M217.384201,5.127112 
	C216.039688,5.386717 214.245178,5.761422 212.448853,5.770456 
	C189.247284,5.887142 166.045471,5.951759 142.370087,5.991651 
	C143.390717,5.627447 144.884644,5.018797 146.379288,5.017037 
	C169.897263,4.989347 193.415329,5.039772 217.384201,5.127112 
z"/>
<path fill="#5794E1" opacity="1.000000" stroke="none" 
	d="
M436.208313,5.806426 
	C416.064117,5.708476 395.919891,5.610526 375.407471,5.337529 
	C395.064545,5.109020 415.089905,5.055556 435.615631,5.247471 
	C436.116028,5.492849 436.208313,5.806426 436.208313,5.806426 
z"/>
<path fill="#8CB6E8" opacity="1.000000" stroke="none" 
	d="
M436.658997,5.807734 
	C436.208313,5.806426 436.116028,5.492849 436.080139,5.333442 
	C447.588287,5.171309 459.132385,5.168583 470.886597,5.553969 
	C459.767731,5.897735 448.438690,5.853389 436.658997,5.807734 
z"/>
<path fill="#2F7DDA" opacity="1.000000" stroke="none" 
	d="
M4.100686,606.411011 
	C4.281336,607.468811 4.388380,608.937561 4.332882,610.693359 
	C4.122586,609.594238 4.074833,608.208069 4.100686,606.411011 
z"/>
<path fill="#F7F6F7" opacity="1.000000" stroke="none" 
	d="
M433.035858,587.068909 
	C421.523529,582.447205 416.625916,573.393494 416.643524,561.546997 
	C416.817993,444.103546 417.092224,326.660217 417.326172,209.216827 
	C417.363647,190.410324 424.659607,183.273804 443.738281,183.238617 
	C522.534058,183.093323 601.329773,182.906067 680.125549,182.728073 
	C681.623718,182.724686 683.121826,182.645554 685.200439,182.496964 
	C685.781006,182.392166 686.018921,182.147781 686.475037,182.246872 
	C695.919800,182.312805 704.908386,182.279648 713.897034,182.246475 
	C724.482910,184.891510 730.309387,192.087265 733.142822,203.064148 
	C733.254028,272.135803 733.270142,340.397919 733.240723,408.660004 
	C733.217957,461.434723 733.138184,514.209412 733.083679,566.984131 
	C730.286804,575.866394 726.301208,584.472961 716.417969,586.428589 
	C708.788208,587.938416 700.656128,586.982056 692.748901,586.922302 
	C691.810120,586.915283 690.807922,585.727600 689.958191,584.952271 
	C680.739990,576.541321 671.546448,568.103333 662.654175,559.311279 
	C677.537964,558.949890 692.113708,558.949890 707.019470,558.949890 
	C707.019470,552.432800 707.020203,546.285828 707.019348,540.138855 
	C707.005249,432.697205 706.997070,325.255554 706.962769,217.813889 
	C706.960449,210.601089 706.868042,210.580429 699.868896,210.594696 
	C656.226868,210.683640 612.584900,210.807922 568.942810,210.870819 
	C528.631531,210.928894 488.320007,210.899567 448.009094,211.040558 
	C446.409393,211.046143 444.814484,212.411087 443.189331,213.570435 
	C443.168945,285.322815 443.180328,356.647430 443.182678,427.972046 
	C443.183960,466.964447 443.170044,505.956879 443.037415,545.403198 
	C442.876007,548.656738 442.975189,551.466187 442.769226,554.253235 
	C442.527069,557.529968 443.568909,559.218872 447.149445,559.035278 
	C450.758881,558.850281 454.384918,558.987976 458.003662,558.984375 
	C461.047852,559.051331 464.092010,559.118347 468.041321,559.164307 
	C486.629120,559.100891 504.311798,559.058472 521.994446,559.016052 
	C522.445679,559.087036 522.896912,559.157959 524.045898,559.192017 
	C525.488403,559.094910 526.233215,559.034607 526.978027,558.974243 
	C539.667969,558.905884 552.357971,558.837524 565.881042,558.712769 
	C567.482910,558.601318 568.251587,558.546204 569.259521,558.564087 
	C569.653015,558.573853 569.807312,558.510620 570.296753,558.517212 
	C571.989563,558.480957 573.347168,558.374817 574.704712,558.268677 
	C575.385620,560.023193 576.554321,561.748840 576.659851,563.537354 
	C577.042236,570.016724 577.209045,576.519348 577.106567,583.007690 
	C577.086548,584.275391 575.500061,585.518311 573.980957,586.843689 
	C572.891296,586.968323 572.456787,587.021912 571.762085,586.987915 
	C571.327576,586.956116 571.153259,587.011902 570.517883,586.998047 
	C565.043884,586.997864 560.031006,587.067200 554.650452,587.003784 
	C553.518555,586.960938 552.754211,587.050781 551.621765,587.067017 
	C550.508484,587.046326 549.763306,587.099243 548.649231,587.030151 
	C547.517578,586.997192 546.754822,587.086243 545.622437,587.100830 
	C544.504944,587.085388 543.757019,587.144470 542.556885,587.070068 
	C536.405640,587.036865 530.706665,587.137024 524.678467,587.158203 
	C523.902344,587.122681 523.455444,587.166260 522.555786,587.076050 
	C510.404633,587.040344 498.706329,587.138367 486.677185,587.158203 
	C485.899200,587.132019 485.451996,587.183960 484.560547,587.100220 
	C480.412170,587.049377 476.708008,587.134277 472.673279,587.153076 
	C471.897766,587.132874 471.452820,587.178711 470.555756,587.095581 
	C465.079041,587.089050 460.054443,587.211426 454.690765,587.263977 
	C453.895508,587.244995 453.439331,587.295776 452.534241,587.211182 
	C446.428131,587.241699 440.770935,587.407593 434.781433,587.435303 
	C433.977997,587.221008 433.506927,587.144958 433.035858,587.068909 
z"/>
<path fill="#F9F8F7" opacity="1.000000" stroke="none" 
	d="
M373.953857,296.109955 
	C374.570160,296.929504 375.186493,297.749054 376.089600,299.090088 
	C376.889709,300.752106 377.403015,301.892670 377.916290,303.033203 
	C377.899200,303.201782 377.882111,303.370392 377.950409,304.210297 
	C378.287537,307.951752 378.539276,311.021942 378.790985,314.092133 
	C378.743256,331.738922 378.695526,349.385742 378.630035,367.852539 
	C378.694733,371.465607 378.777222,374.258698 378.859680,377.051788 
	C378.801971,377.476196 378.744263,377.900574 378.667236,378.881470 
	C378.717957,380.311310 378.788025,381.184692 378.858093,382.058075 
	C378.796082,387.389801 378.734100,392.721558 378.657684,398.902893 
	C378.406586,405.490814 378.169891,411.229126 377.933228,416.967438 
	C377.933228,416.967438 377.996368,416.966827 377.856964,417.047241 
	C377.603027,417.341492 377.620300,417.544037 377.769379,417.735260 
	C377.574493,418.239777 377.379608,418.744324 377.000671,419.904388 
	C376.321411,421.705231 375.826263,422.850555 375.331116,423.995850 
	C374.001221,425.122009 372.671356,426.248169 370.780762,427.727112 
	C366.233856,428.983521 362.278473,430.459686 358.255402,430.675873 
	C348.835175,431.182037 339.382446,431.084259 329.480530,431.178650 
	C311.503174,431.336670 293.988220,431.547028 276.251099,431.626404 
	C275.542816,431.592346 275.056702,431.689240 274.160889,431.718384 
	C271.246094,431.723053 268.741028,431.795502 266.068298,431.768188 
	C265.532593,431.740906 265.164520,431.813354 264.351257,431.833801 
	C260.283783,431.884705 256.661591,431.987610 253.039368,432.090546 
	C253.039368,432.090546 252.640945,431.941711 252.270752,431.640930 
	C251.265976,431.228790 250.631409,431.117493 249.996841,431.006165 
	C243.120987,427.222931 240.038239,421.622528 240.106506,413.570007 
	C240.395737,379.449066 240.409744,345.324890 240.325745,311.202362 
	C240.309006,304.400604 242.152237,298.781189 248.153305,294.219208 
	C250.485641,293.307922 252.258392,292.719788 254.031143,292.131653 
	C254.465698,292.167816 254.900269,292.204010 256.045837,292.298706 
	C260.419983,292.467072 264.083160,292.674316 267.746185,292.671417 
	C298.411407,292.647186 329.077972,292.431000 359.740509,292.694092 
	C364.487732,292.734802 369.216522,294.917694 373.953857,296.109955 
z"/>
<path fill="#F9F8F7" opacity="1.000000" stroke="none" 
	d="
M367.931122,130.391663 
	C375.993713,133.511902 378.530853,140.204987 378.549194,147.962784 
	C378.628021,181.290955 378.497955,214.619720 378.379883,247.948059 
	C378.371094,250.430298 378.050262,252.951111 377.542297,255.384674 
	C375.840576,263.537354 370.209381,268.009918 361.931885,268.011932 
	C327.437622,268.020325 292.943390,268.037170 258.449127,268.047333 
	C245.824631,268.051056 240.084137,262.281525 240.107712,249.738266 
	C240.171616,215.740280 240.217041,181.742249 240.241684,147.744217 
	C240.247009,140.407654 242.210663,134.222610 250.247604,130.694977 
	C268.038727,130.319473 285.127838,130.164398 302.216858,130.169556 
	C324.121643,130.176163 346.026367,130.311691 367.931122,130.391663 
z"/>
<path fill="#F9F8F7" opacity="1.000000" stroke="none" 
	d="
M203.925369,130.295746 
	C210.903442,133.012314 214.948486,137.552658 214.961319,145.591614 
	C215.016708,180.319565 215.443237,215.047394 215.375046,249.774551 
	C215.366745,254.005035 213.992142,258.716797 211.812393,262.340271 
	C208.884567,267.207275 203.577164,268.751068 197.055725,268.095459 
	C195.520554,268.184387 194.772614,268.231506 193.763153,268.192108 
	C193.329193,268.168823 193.156769,268.232056 192.656006,268.228424 
	C191.885651,268.208923 191.443634,268.256256 190.614563,268.180542 
	C189.163696,268.170563 188.099899,268.283600 186.654724,268.320435 
	C185.501434,268.299683 184.729538,268.355164 183.957626,268.410645 
	C168.152466,268.327789 152.347382,268.213562 136.542114,268.171509 
	C123.053780,268.135620 109.556465,268.458801 96.081833,268.032257 
	C91.791801,267.896454 86.817047,266.860687 83.529068,264.400879 
	C80.660698,262.254974 78.206406,257.541992 78.169502,253.936600 
	C77.803055,218.137772 77.986908,182.333389 77.990395,146.530579 
	C77.991058,139.698639 80.197495,134.141251 87.303070,130.569183 
	C126.632904,130.272141 165.279144,130.283936 203.925369,130.295746 
z"/>
<path fill="#F9F8F7" opacity="1.000000" stroke="none" 
	d="
M214.785400,386.147797 
	C214.785400,386.147797 214.614563,386.503845 214.623230,387.154663 
	C214.710632,394.862335 214.789398,401.919220 214.868164,408.976074 
	C214.787445,411.395905 214.706757,413.815735 214.657074,416.895752 
	C214.643906,418.203979 214.599731,418.852020 214.555557,419.500031 
	C211.427917,428.216003 205.404205,431.353546 196.074997,431.034485 
	C180.649490,430.506958 165.183777,431.154755 148.861481,431.400574 
	C145.985992,431.542267 143.984024,431.590607 141.655579,431.489716 
	C140.398056,431.457458 139.467010,431.574432 138.198364,431.613678 
	C136.711960,431.605774 135.563187,431.675568 134.154114,431.595184 
	C133.124496,431.545746 132.355194,431.646484 131.148224,431.678528 
	C124.863884,431.706909 119.017220,431.803986 113.023575,431.789246 
	C112.536705,431.756805 112.196800,431.836151 111.513199,431.869507 
	C110.479057,431.863495 109.788620,431.903412 108.968521,431.841797 
	C108.486763,431.655212 108.184036,431.729919 107.469353,431.918152 
	C101.435654,431.836273 95.863274,431.800476 90.290894,431.764679 
	C79.770073,427.717133 77.173431,423.686798 77.206779,412.255005 
	C77.303276,379.175568 77.301094,346.095825 77.369354,313.016296 
	C77.374138,310.697388 77.468666,308.353668 77.811279,306.064850 
	C79.108948,297.395874 84.713112,292.495758 93.445290,292.437927 
	C100.923836,292.388397 108.403496,292.509186 116.724152,292.525208 
	C118.112411,292.430634 118.659187,292.365540 119.643417,292.424500 
	C130.649277,292.480194 141.217682,292.411743 152.215118,292.436951 
	C153.514969,292.461975 154.385788,292.393341 155.256607,292.324707 
	C163.796310,292.398010 172.336029,292.471283 181.721573,292.505066 
	C183.120773,292.398956 183.674133,292.332367 184.227493,292.265747 
	C187.587341,292.337280 190.947205,292.408813 194.918579,292.432465 
	C195.874313,292.441681 196.182053,292.360443 196.694641,292.295349 
	C197.474411,292.345764 198.012848,292.241760 198.765869,292.251709 
	C198.980423,292.365631 199.464951,292.390533 199.464951,292.390533 
	C199.464951,292.390533 199.929962,292.252167 199.929962,292.252167 
	C206.759415,293.779144 212.035294,297.091522 214.034393,305.109314 
	C214.355850,311.330627 214.604660,316.814117 214.628174,322.298645 
	C214.719452,343.581512 214.739090,364.864716 214.785400,386.147797 
z"/>
<path fill="#F8F7F7" opacity="1.000000" stroke="none" 
	d="
M583.891846,485.997498 
	C567.866943,488.849304 552.977112,486.364655 538.554382,480.128601 
	C512.941101,469.053986 500.649353,448.660370 498.152405,421.745941 
	C497.432770,413.989197 497.776062,406.075378 498.281860,398.275665 
	C499.307861,382.454529 505.936432,369.479187 517.686218,358.516174 
	C536.246948,341.198273 557.754456,334.575073 582.512024,338.803680 
	C604.641663,342.583405 622.512817,354.261078 632.998108,373.771149 
	C643.599365,393.496826 647.751831,415.315216 640.159790,437.528900 
	C630.998291,464.334930 611.401794,479.555908 583.891846,485.997498 
M554.396667,437.539917 
	C551.399902,436.116669 548.302612,434.864899 545.450989,433.193878 
	C544.132812,432.421356 542.651428,430.969940 542.351624,429.586334 
	C541.198242,424.263031 540.004089,418.866547 539.739563,413.452667 
	C539.382996,406.155151 539.777588,398.813171 540.030945,391.496521 
	C540.185120,387.045929 537.894531,385.652039 533.888245,385.737946 
	C530.028992,385.820679 525.273438,384.390106 525.068481,390.650024 
	C524.672607,402.746613 523.731506,414.890686 524.394897,426.939148 
	C525.132996,440.345459 532.552368,449.294556 546.203918,451.780426 
	C552.987183,453.015656 559.938293,453.312683 566.804443,454.112183 
	C579.524719,455.593384 591.161011,451.961670 602.353088,446.487396 
	C609.500000,442.991638 613.897583,436.959442 614.031921,429.137146 
	C614.228516,417.688568 613.782349,406.179901 612.746338,394.775269 
	C611.961365,386.134247 609.207642,384.607758 600.585815,384.913422 
	C597.398865,385.026459 596.464355,386.396515 596.770203,389.229553 
	C597.288086,394.026154 597.953552,398.812103 598.297058,403.621094 
	C599.007751,413.572449 600.297363,423.650879 593.264099,432.902008 
	C587.976562,437.018158 581.773254,438.747406 575.281067,438.845062 
	C568.522644,438.946777 561.752441,438.268372 554.396667,437.539917 
z"/>
<path fill="#F7F7F7" opacity="1.000000" stroke="none" 
	d="
M601.265259,659.691895 
	C600.046814,657.108154 598.395752,654.734497 598.361023,652.337463 
	C597.811401,614.380859 597.401489,576.421631 597.220398,538.461731 
	C597.207275,535.699219 598.440369,531.982239 600.435791,530.377319 
	C603.559448,527.864990 606.621521,530.650696 609.099976,532.978516 
	C637.007507,559.190369 664.906250,585.411621 692.791199,611.647522 
	C693.998901,612.783813 695.550781,613.912170 696.053284,615.354065 
	C696.760620,617.384338 697.410522,620.055847 696.623718,621.790222 
	C695.986877,623.193909 693.107361,624.498779 691.369507,624.330444 
	C682.276428,623.449890 673.233521,622.059082 664.164917,620.911255 
	C662.256165,620.669739 660.312622,620.703003 657.173645,620.551025 
	C660.269165,628.005798 662.727661,634.677185 665.773682,641.068665 
	C669.423950,648.728027 673.599976,656.135803 677.501526,663.676697 
	C680.248352,668.985901 679.929565,670.382385 674.936646,673.415588 
	C670.958069,675.832458 666.787292,677.931091 662.776794,680.297913 
	C658.816406,682.635193 656.092651,681.976257 654.058105,677.633606 
	C648.128174,664.976440 642.017456,652.403992 635.987427,639.793640 
	C635.222900,638.194763 634.516785,636.567932 633.577087,634.499390 
	C625.488037,642.320618 617.937378,649.766602 610.199951,657.013306 
	C607.895386,659.171692 605.547241,662.239258 601.265259,659.691895 
z"/>
<path fill="#F8F7F7" opacity="1.000000" stroke="none" 
	d="
M580.978210,238.906052 
	C587.021179,238.976028 593.064209,239.046005 600.033264,239.086487 
	C619.632019,239.023224 638.304749,238.989456 656.977417,238.955688 
	C657.745056,239.007507 658.512695,239.059326 660.120361,239.081451 
	C667.153748,239.063477 673.347168,239.075226 679.540588,239.086960 
	C685.638733,243.939545 688.002625,252.556885 685.372864,260.491547 
	C683.804749,265.222931 679.352600,265.667389 674.868042,267.202148 
	C672.953979,267.524078 671.695129,267.666046 670.023987,267.647919 
	C632.728149,267.375885 595.844727,267.253113 558.961182,267.165558 
	C554.321838,267.154541 549.682068,267.328522 544.663696,267.339203 
	C543.517090,267.309845 542.749268,267.358063 541.599976,267.271973 
	C540.155640,267.219727 539.092834,267.301697 537.594971,267.292969 
	C534.802734,267.228790 532.445557,267.255280 530.088440,267.281769 
	C514.293213,267.115570 498.498016,266.946472 482.702728,266.786713 
	C480.705811,266.766510 478.708160,266.820862 476.711365,266.796326 
	C468.095490,266.690460 465.359497,264.111023 465.525970,255.361908 
	C465.639099,249.417847 464.141876,242.643677 472.119080,239.039200 
	C475.826019,238.768509 478.811249,238.543625 481.795807,238.552383 
	C514.856628,238.649399 547.917419,238.782623 580.978210,238.906052 
z"/>
<path fill="#4F8EDE" opacity="1.000000" stroke="none" 
	d="
M443.217346,213.142639 
	C444.814484,212.411087 446.409393,211.046143 448.009094,211.040558 
	C488.320007,210.899567 528.631531,210.928894 568.942810,210.870819 
	C612.584900,210.807922 656.226868,210.683640 699.868896,210.594696 
	C706.868042,210.580429 706.960449,210.601089 706.962769,217.813889 
	C706.997070,325.255554 707.005249,432.697205 707.019348,540.138855 
	C707.020203,546.285828 707.019470,552.432800 707.019470,558.949890 
	C692.113708,558.949890 677.537964,558.949890 662.501099,559.024780 
	C662.043457,558.893188 662.046997,558.686646 662.531006,558.189453 
	C675.653198,557.921387 688.294800,557.944092 700.936401,557.966736 
	C703.982666,558.187805 705.166199,556.616699 705.042236,553.740967 
	C704.999268,552.743408 705.050720,551.742004 705.050720,550.742371 
	C705.050781,440.779572 705.050781,330.816803 705.047791,220.854004 
	C705.047607,212.967407 705.037354,212.963974 696.979736,212.964767 
	C678.319458,212.966568 659.659119,212.972031 640.172607,212.777023 
	C637.369873,212.391205 635.393433,212.042160 633.416870,212.041153 
	C572.919922,212.010574 512.422974,212.004318 451.926086,212.053787 
	C449.824615,212.055496 447.723663,212.665894 445.622467,212.992584 
	C445.622467,212.992584 445.507874,212.954544 444.900726,212.973389 
	C443.934845,213.042358 443.576080,213.092499 443.217346,213.142639 
z"/>
<path fill="#2B7CDB" opacity="1.000000" stroke="none" 
	d="
M733.410767,566.787842 
	C733.138184,514.209412 733.217957,461.434723 733.240723,408.660004 
	C733.270142,340.397919 733.254028,272.135803 733.320007,203.404266 
	C733.886230,202.948135 734.826355,202.927826 734.830383,202.979706 
	C734.945251,204.469406 734.997803,205.966339 734.997925,207.462112 
	C735.004333,324.637512 735.013489,441.812927 734.954041,558.988342 
	C734.952759,561.522949 734.160889,564.057129 733.410767,566.787842 
z"/>
<path fill="#1C76D9" opacity="1.000000" stroke="none" 
	d="
M443.189331,213.570404 
	C443.576080,213.092499 443.934845,213.042358 444.840393,212.971558 
	C445.258270,214.605057 445.016846,216.259247 445.016510,217.913452 
	C444.995697,326.661133 444.994354,435.408813 444.691620,544.599731 
	C443.982269,545.011780 443.572632,544.980530 443.162964,544.949280 
	C443.170044,505.956879 443.183960,466.964447 443.182678,427.972046 
	C443.180328,356.647430 443.168945,285.322815 443.189331,213.570404 
z"/>
<path fill="#4F8EDE" opacity="1.000000" stroke="none" 
	d="
M373.876160,295.763733 
	C369.216522,294.917694 364.487732,292.734802 359.740509,292.694092 
	C329.077972,292.431000 298.411407,292.647186 267.746185,292.671417 
	C264.083160,292.674316 260.419983,292.467072 256.367706,292.233765 
	C257.186737,291.486328 258.399841,290.310974 259.602356,290.321747 
	C275.695251,290.465973 291.787140,291.011932 307.878296,290.978027 
	C323.802063,290.944519 339.723663,290.274109 355.648590,290.092712 
	C359.767273,290.045807 363.990112,290.381805 367.980194,291.324524 
	C370.122375,291.830627 371.871796,293.999115 373.876160,295.763733 
z"/>
<path fill="#2B7CDB" opacity="1.000000" stroke="none" 
	d="
M580.729736,238.614899 
	C547.917419,238.782623 514.856628,238.649399 481.795807,238.552383 
	C478.811249,238.543625 475.826019,238.768509 472.429138,238.875092 
	C473.763336,238.238815 475.507782,237.071457 477.255829,237.066086 
	C509.949738,236.965546 542.644165,236.983170 575.338196,237.067291 
	C577.053589,237.071716 578.766907,237.886322 580.729736,238.614899 
z"/>
<path fill="#1C76D9" opacity="1.000000" stroke="none" 
	d="
M446.129211,213.008011 
	C447.723663,212.665894 449.824615,212.055496 451.926086,212.053787 
	C512.422974,212.004318 572.919922,212.010574 633.416870,212.041153 
	C635.393433,212.042160 637.369873,212.391205 639.708557,212.791321 
	C575.592468,213.010895 511.114227,213.017166 446.129211,213.008011 
z"/>
<path fill="#1676DA" opacity="1.000000" stroke="none" 
	d="
M555.018066,587.136536 
	C560.031006,587.067200 565.043884,586.997864 570.625732,587.114929 
	C571.194580,587.301392 571.652100,587.347595 571.652100,587.347595 
	C571.652100,587.347595 572.022217,587.075500 572.022217,587.075562 
	C572.456787,587.021912 572.891296,586.968323 573.650391,586.973328 
	C572.232117,587.673401 570.491028,588.869812 568.746216,588.875183 
	C525.156738,589.009766 481.566864,589.032043 437.977142,588.994202 
	C436.458801,588.992920 434.941223,588.171509 433.229553,587.400635 
	C433.506927,587.144958 433.977997,587.221008 435.150818,587.585815 
	C441.562744,587.698486 447.272980,587.522522 452.983185,587.346558 
	C453.439331,587.295776 453.895508,587.244995 455.053741,587.447144 
	C460.839844,587.541565 465.923889,587.383057 471.007904,587.224609 
	C471.452820,587.178711 471.897766,587.132874 473.024658,587.349243 
	C477.472717,587.486328 481.238770,587.361084 485.004822,587.235840 
	C485.451996,587.183960 485.899200,587.132019 487.036011,587.359314 
	C494.873993,587.778015 502.023132,588.051208 509.170380,588.009033 
	C513.784546,587.981750 518.395935,587.492188 523.008606,587.209839 
	C523.455444,587.166260 523.902344,587.122681 525.038269,587.355957 
	C531.487976,587.489685 537.248535,587.346558 543.009155,587.203491 
	C543.757019,587.144470 544.504944,587.085388 545.843506,587.278687 
	C547.295593,587.404724 548.156860,587.278442 549.018188,587.152100 
	C549.763306,587.099243 550.508484,587.046326 551.841553,587.245850 
	C553.292419,587.377747 554.155212,587.257141 555.018066,587.136536 
z"/>
<path fill="#1676DA" opacity="1.000000" stroke="none" 
	d="
M541.981506,267.406250 
	C542.749268,267.358063 543.517090,267.309845 545.027466,267.524231 
	C547.754517,267.905029 549.738831,268.124176 551.723328,268.126160 
	C576.168335,268.150269 600.613464,268.182220 625.058350,268.128632 
	C640.184509,268.095490 655.310364,267.919739 670.436340,267.808014 
	C671.695129,267.666046 672.953979,267.524078 674.594727,267.400757 
	C672.966858,267.957855 670.957581,268.963226 668.946899,268.966125 
	C624.366516,269.030853 579.785889,268.995880 535.205383,268.914001 
	C533.644836,268.911133 532.085510,268.232056 530.307007,267.574951 
	C532.445557,267.255280 534.802734,267.228790 537.842285,267.469299 
	C539.676941,267.626282 540.829224,267.516296 541.981506,267.406250 
z"/>
<path fill="#1676DA" opacity="1.000000" stroke="none" 
	d="
M253.386139,432.311737 
	C256.661591,431.987610 260.283783,431.884705 264.711945,431.875885 
	C265.757202,431.935974 265.996552,431.901978 266.235931,431.867950 
	C268.741028,431.795502 271.246094,431.723053 274.638000,431.756470 
	C275.840973,431.827362 276.157135,431.792389 276.473267,431.757385 
	C293.988220,431.547028 311.503174,431.336670 329.485046,431.474854 
	C329.977295,432.217621 330.002594,432.611816 330.027893,433.006042 
	C306.736053,433.021912 283.444183,433.051422 260.152374,433.030762 
	C258.012421,433.028870 255.872726,432.706512 253.386139,432.311737 
z"/>
<path fill="#1676DA" opacity="1.000000" stroke="none" 
	d="
M191.001633,268.303589 
	C191.443634,268.256256 191.885651,268.208923 192.765854,268.342163 
	C193.204056,268.522736 193.660416,268.557343 193.660416,268.557343 
	C193.660416,268.557343 194.024689,268.278595 194.024689,268.278595 
	C194.772614,268.231506 195.520554,268.184387 196.635071,268.222382 
	C198.692444,268.727844 200.383224,269.148224 202.887985,269.770966 
	C166.336731,269.770966 130.645706,269.770966 94.954681,269.770966 
	C94.954132,269.552643 94.953583,269.334351 94.953033,269.116028 
	C112.234245,269.116028 129.515594,269.157623 146.796631,269.101868 
	C158.940628,269.062683 171.084183,268.890930 183.592773,268.594513 
	C184.729538,268.355164 185.501434,268.299683 186.908203,268.491211 
	C188.695923,268.593384 189.848785,268.448486 191.001633,268.303589 
z"/>
<path fill="#0072DA" opacity="1.000000" stroke="none" 
	d="
M367.620544,130.112564 
	C346.026367,130.311691 324.121643,130.176163 302.216858,130.169556 
	C285.127838,130.164398 268.038727,130.319473 250.486511,130.489136 
	C251.696579,130.044312 253.368713,129.054504 255.043137,129.050644 
	C291.027496,128.967453 327.012146,128.984985 362.996643,129.035553 
	C364.434784,129.037567 365.872192,129.555771 367.620544,130.112564 
z"/>
<path fill="#0072DA" opacity="1.000000" stroke="none" 
	d="
M203.614716,130.021332 
	C165.279144,130.283936 126.632904,130.272141 87.527695,130.335281 
	C88.760925,129.929550 90.452232,129.033096 92.145462,129.029465 
	C127.752083,128.953293 163.358932,128.968933 198.965668,129.015030 
	C200.412125,129.016907 201.857956,129.492203 203.614716,130.021332 
z"/>
<path fill="#1C76D9" opacity="1.000000" stroke="none" 
	d="
M215.027512,385.794067 
	C214.739090,364.864716 214.719452,343.581512 214.628174,322.298645 
	C214.604660,316.814117 214.355850,311.330627 214.226593,305.404449 
	C214.827682,306.576172 215.914978,308.187836 215.922272,309.804352 
	C216.029678,333.561707 216.005951,357.319763 215.960205,381.077515 
	C215.957397,382.532227 215.510101,383.986053 215.027512,385.794067 
z"/>
<path fill="#2B7CDB" opacity="1.000000" stroke="none" 
	d="
M686.018921,182.147781 
	C686.018921,182.147781 685.781006,182.392166 685.614380,182.355255 
	C673.960083,182.186905 662.472778,181.989639 650.984802,181.940308 
	C635.687378,181.874619 620.389465,181.924072 605.090393,181.041489 
	C631.779663,181.041489 658.468994,181.041489 685.612915,181.330200 
	C686.051392,181.795197 686.035156,181.971497 686.018921,182.147781 
z"/>
<path fill="#4287DD" opacity="1.000000" stroke="none" 
	d="
M330.493713,433.002502 
	C330.002594,432.611816 329.977295,432.217621 329.947449,431.527161 
	C339.382446,431.084259 348.835175,431.182037 358.255402,430.675873 
	C362.278473,430.459686 366.233856,428.983521 370.592651,427.991180 
	C368.174286,429.257538 365.455292,431.580261 362.579437,431.794250 
	C352.067749,432.576141 341.503784,432.655151 330.493713,433.002502 
z"/>
<path fill="#2B7CDB" opacity="1.000000" stroke="none" 
	d="
M119.205956,292.300415 
	C118.659187,292.365540 118.112411,292.430634 117.160370,292.400391 
	C112.161118,292.085175 107.567146,291.865295 102.973167,291.645416 
	C102.976341,291.505188 102.979515,291.364990 102.982689,291.224792 
	C123.295731,291.224792 143.608765,291.224792 163.921814,291.224792 
	C163.934631,291.381927 163.947449,291.539032 163.960266,291.696167 
	C161.296463,291.832001 158.632645,291.967804 155.612732,292.214172 
	C154.385788,292.393341 153.514969,292.461975 151.841370,292.322662 
	C140.427719,292.176636 129.816833,292.238525 119.205956,292.300415 
z"/>
<path fill="#0072DA" opacity="1.000000" stroke="none" 
	d="
M113.170547,431.901031 
	C119.017220,431.803986 124.863884,431.706909 131.616623,431.783112 
	C133.153259,431.886047 133.783844,431.815704 134.414413,431.745361 
	C135.563187,431.675568 136.711960,431.605774 138.534210,431.745819 
	C140.132492,431.850128 141.057266,431.744537 141.982056,431.638947 
	C143.984024,431.590607 145.985992,431.542267 148.407959,431.566406 
	C147.661041,432.086823 146.495987,432.919312 145.326874,432.925049 
	C127.579102,433.012115 109.830795,432.997253 92.082672,432.966339 
	C91.503357,432.965332 90.924782,432.542297 90.318375,432.040344 
	C95.863274,431.800476 101.435654,431.836273 107.762459,431.971375 
	C108.710648,432.028290 108.904419,431.985840 109.098183,431.943359 
	C109.788620,431.903412 110.479057,431.863495 111.842499,431.925354 
	C112.733849,431.985107 112.952202,431.943054 113.170547,431.901031 
z"/>
<path fill="#1676DA" opacity="1.000000" stroke="none" 
	d="
M656.628601,238.738663 
	C638.304749,238.989456 619.632019,239.023224 600.496582,238.998352 
	C601.474060,238.629456 602.913330,238.054642 604.354675,238.049423 
	C620.684570,237.990143 637.014648,238.009537 653.344666,238.043976 
	C654.323364,238.046036 655.301453,238.355316 656.628601,238.738663 
z"/>
<path fill="#1C76D9" opacity="1.000000" stroke="none" 
	d="
M521.634521,558.816895 
	C504.311798,559.058472 486.629120,559.100891 468.487091,559.059204 
	C469.471527,558.666199 470.914154,558.095459 472.359344,558.088928 
	C487.524750,558.020569 502.690582,558.030090 517.856201,558.064392 
	C518.996033,558.066956 520.135132,558.424927 521.634521,558.816895 
z"/>
<path fill="#4F8EDE" opacity="1.000000" stroke="none" 
	d="
M443.037415,545.403198 
	C443.572632,544.980530 443.982269,545.011780 444.699097,545.075073 
	C444.999725,545.772339 444.961853,546.438965 444.991913,547.102539 
	C445.134460,550.244019 444.304352,554.049683 445.805511,556.287048 
	C446.773895,557.730469 451.182556,556.770020 454.025482,557.095886 
	C455.257294,557.237122 456.428772,557.904541 457.815674,558.658569 
	C454.384918,558.987976 450.758881,558.850281 447.149445,559.035278 
	C443.568909,559.218872 442.527069,557.529968 442.769226,554.253235 
	C442.975189,551.466187 442.876007,548.656738 443.037415,545.403198 
z"/>
<path fill="#4287DD" opacity="1.000000" stroke="none" 
	d="
M378.273224,416.799622 
	C378.169891,411.229126 378.406586,405.490814 378.754303,399.360077 
	C379.503845,399.653473 380.750397,400.404053 380.685333,401.014984 
	C380.129486,406.234924 379.335754,411.429565 378.273224,416.799622 
z"/>
<path fill="#2F7DDA" opacity="1.000000" stroke="none" 
	d="
M546.568481,789.724609 
	C533.611145,789.940796 520.302246,789.958557 506.532654,789.954102 
	C508.008392,789.622559 509.946808,789.035645 511.880890,789.049438 
	C523.326782,789.131042 534.771729,789.352051 546.568481,789.724609 
z"/>
<path fill="#2B7CDB" opacity="1.000000" stroke="none" 
	d="
M700.587646,557.759521 
	C688.294800,557.944092 675.653198,557.921387 662.554077,557.880371 
	C665.365906,557.567749 668.636658,557.011108 671.904419,557.028687 
	C681.349915,557.079468 690.794128,557.361206 700.587646,557.759521 
z"/>
<path fill="#1C76D9" opacity="1.000000" stroke="none" 
	d="
M569.020325,558.491150 
	C568.251587,558.546204 567.482910,558.601318 566.332520,558.592651 
	C559.380066,558.214661 552.809265,557.900391 549.202820,557.727844 
	C555.695862,557.727844 565.155823,557.727844 574.660217,557.998291 
	C573.347168,558.374817 571.989563,558.480957 570.194702,558.420105 
	C569.453491,558.152771 569.207825,558.232117 569.020325,558.491150 
z"/>
<path fill="#2F7DDA" opacity="1.000000" stroke="none" 
	d="
M581.577026,789.732910 
	C571.951477,789.947510 561.973999,789.962463 551.536255,789.952515 
	C561.125732,789.796143 571.175415,789.664673 581.577026,789.732910 
z"/>
<path fill="#0072DA" opacity="1.000000" stroke="none" 
	d="
M686.475037,182.246872 
	C686.035156,181.971497 686.051392,181.795197 686.087830,181.354889 
	C695.156555,181.308319 704.205139,181.525757 713.575317,181.994843 
	C704.908386,182.279648 695.919800,182.312805 686.475037,182.246872 
z"/>
<path fill="#4287DD" opacity="1.000000" stroke="none" 
	d="
M379.159302,376.825317 
	C378.777222,374.258698 378.694733,371.465607 378.727753,368.309235 
	C381.806549,370.634003 381.755768,373.536499 379.159302,376.825317 
z"/>
<path fill="#1C76D9" opacity="1.000000" stroke="none" 
	d="
M215.097321,408.631866 
	C214.789398,401.919220 214.710632,394.862335 214.711426,387.331299 
	C214.969482,394.000641 215.147964,401.144165 215.097321,408.631866 
z"/>
<path fill="#2F7DDA" opacity="1.000000" stroke="none" 
	d="
M479.561279,789.717590 
	C472.945709,789.928345 465.978790,789.942139 458.553650,789.931152 
	C465.133575,789.777710 472.171783,789.649170 479.561279,789.717590 
z"/>
<path fill="#2B7CDB" opacity="1.000000" stroke="none" 
	d="
M184.366302,292.115509 
	C183.674133,292.332367 183.120773,292.398956 182.156891,292.378571 
	C177.521973,292.084778 173.297577,291.877960 169.073196,291.671112 
	C169.071518,291.502533 169.069855,291.333984 169.068192,291.165405 
	C174.172668,291.165405 179.277145,291.163483 184.381577,291.180481 
	C184.475601,291.180817 184.626801,291.398193 184.646408,291.529907 
	C184.666534,291.665039 184.557587,291.819336 184.366302,292.115509 
z"/>
<path fill="#4287DD" opacity="1.000000" stroke="none" 
	d="
M379.026642,313.759186 
	C378.539276,311.021942 378.287537,307.951752 378.056885,304.441101 
	C378.472748,307.142517 378.867523,310.284393 379.026642,313.759186 
z"/>
<path fill="#1676DA" opacity="1.000000" stroke="none" 
	d="
M679.125916,238.912552 
	C673.347168,239.075226 667.153748,239.063477 660.497681,238.995300 
	C666.260437,238.871933 672.485840,238.805038 679.125916,238.912552 
z"/>
<path fill="#2F7DDA" opacity="1.000000" stroke="none" 
	d="
M660.492920,789.647888 
	C655.230957,789.872864 649.618286,789.916931 643.547485,789.937073 
	C648.773621,789.764404 654.457947,789.615723 660.492920,789.647888 
z"/>
<path fill="#4F8EDE" opacity="1.000000" stroke="none" 
	d="
M253.916656,291.857880 
	C252.258392,292.719788 250.485641,293.307922 248.360458,293.957764 
	C249.375595,291.866302 250.648575,289.488037 253.916656,291.857880 
z"/>
<path fill="#2F7DDA" opacity="1.000000" stroke="none" 
	d="
M452.568481,789.722961 
	C448.612671,789.930237 444.308838,789.941589 439.551025,789.928589 
	C443.471497,789.778442 447.845978,789.652710 452.568481,789.722961 
z"/>
<path fill="#2F7DDA" opacity="1.000000" stroke="none" 
	d="
M435.563416,789.717590 
	C431.607208,789.928589 427.303253,789.944458 422.544586,789.936279 
	C426.465149,789.782349 430.840393,789.652405 435.563416,789.717590 
z"/>
<path fill="#2F7DDA" opacity="1.000000" stroke="none" 
	d="
M416.564606,789.719971 
	C412.607452,789.931946 408.302490,789.948608 403.542694,789.940063 
	C407.464172,789.784729 411.840485,789.654663 416.564606,789.719971 
z"/>
<path fill="#2F7DDA" opacity="1.000000" stroke="none" 
	d="
M607.559082,789.712402 
	C604.263977,789.923035 600.626160,789.941956 596.537659,789.938293 
	C599.796814,789.784058 603.506531,789.652344 607.559082,789.712402 
z"/>
<path fill="#2F7DDA" opacity="1.000000" stroke="none" 
	d="
M624.565796,789.709351 
	C621.926331,789.916809 618.953918,789.935059 615.539062,789.928467 
	C618.142029,789.775818 621.187439,789.647949 624.565796,789.709351 
z"/>
<path fill="#4287DD" opacity="1.000000" stroke="none" 
	d="
M378.098969,302.790588 
	C377.403015,301.892670 376.889709,300.752106 376.311768,299.304626 
	C376.925262,300.181122 377.603455,301.364532 378.098969,302.790588 
z"/>
<path fill="#2F7DDA" opacity="1.000000" stroke="none" 
	d="
M593.593018,789.731689 
	C591.263855,789.941406 588.607788,789.960388 585.511108,789.956177 
	C587.802368,789.802368 590.534241,789.671692 593.593018,789.731689 
z"/>
<path fill="#4287DD" opacity="1.000000" stroke="none" 
	d="
M375.589172,423.882568 
	C375.826263,422.850555 376.321411,421.705231 377.011536,420.314819 
	C376.753418,421.302917 376.300323,422.536072 375.589172,423.882568 
z"/>
<path fill="#2F7DDA" opacity="1.000000" stroke="none" 
	d="
M4.264585,324.642517 
	C4.059724,323.257690 4.039755,321.580200 4.051261,319.485138 
	C4.204983,320.828308 4.327230,322.589081 4.264585,324.642517 
z"/>
<path fill="#2F7DDA" opacity="1.000000" stroke="none" 
	d="
M639.621155,789.729248 
	C638.246582,789.927246 636.581360,789.943665 634.501953,789.936279 
	C635.835266,789.790955 637.582947,789.669373 639.621155,789.729248 
z"/>
<path fill="#4287DD" opacity="1.000000" stroke="none" 
	d="
M379.046814,381.829163 
	C378.788025,381.184692 378.717957,380.311310 378.756226,379.193329 
	C378.988220,379.832581 379.111908,380.716431 379.046814,381.829163 
z"/>
<path fill="#2F7DDA" opacity="1.000000" stroke="none" 
	d="
M4.268839,591.654541 
	C4.072920,590.579712 4.054843,589.231873 4.068651,587.481201 
	C4.215918,588.512817 4.331299,589.947205 4.268839,591.654541 
z"/>
<path fill="#2B7CDB" opacity="1.000000" stroke="none" 
	d="
M196.453308,292.140930 
	C196.182053,292.360443 195.874313,292.441681 195.299805,292.303741 
	C196.519989,292.077423 197.970459,291.931976 199.675446,292.019348 
	C199.929962,292.252167 199.464951,292.390533 199.464951,292.390533 
	C199.464951,292.390533 198.980423,292.365631 198.240204,292.236755 
	C197.151108,292.118896 196.802200,292.129913 196.453308,292.140930 
z"/>
<path fill="#2B7CDB" opacity="1.000000" stroke="none" 
	d="
M189.984406,291.128540 
	C190.594772,291.169403 191.028687,291.258026 192.243423,291.506073 
	C190.989334,291.670532 190.530243,291.764771 190.071869,291.761444 
	C189.982483,291.760834 189.895859,291.381134 189.984406,291.128540 
z"/>
<path fill="#2F7DDA" opacity="1.000000" stroke="none" 
	d="
M4.271705,257.672729 
	C4.075728,256.892731 4.049562,255.863693 4.053335,254.449768 
	C4.202688,255.184479 4.322102,256.304077 4.271705,257.672729 
z"/>
<path fill="#2F7DDA" opacity="1.000000" stroke="none" 
	d="
M4.260363,337.683105 
	C4.069708,336.902100 4.050723,335.872894 4.065252,334.459259 
	C4.209856,335.194855 4.320944,336.314911 4.260363,337.683105 
z"/>
<path fill="#2F7DDA" opacity="1.000000" stroke="none" 
	d="
M397.664124,789.734985 
	C396.893372,789.916992 395.877777,789.930420 394.483215,789.915405 
	C395.209259,789.780151 396.314301,789.673218 397.664124,789.734985 
z"/>
<path fill="#1C76D9" opacity="1.000000" stroke="none" 
	d="
M214.769897,419.567200 
	C214.599731,418.852020 214.643906,418.203979 214.777466,417.242859 
	C214.905991,417.831268 214.945129,418.732819 214.769897,419.567200 
z"/>
<path fill="#2F7DDA" opacity="1.000000" stroke="none" 
	d="
M496.689026,789.760254 
	C495.908966,789.943237 494.881989,789.952454 493.471863,789.933289 
	C494.206482,789.798767 495.324310,789.692627 496.689026,789.760254 
z"/>
<path fill="#2F7DDA" opacity="1.000000" stroke="none" 
	d="
M4.253280,207.715454 
	C4.075632,207.214493 4.055407,206.498459 4.064363,205.425446 
	C4.199264,205.879105 4.304983,206.689758 4.253280,207.715454 
z"/>
<path fill="#2F7DDA" opacity="1.000000" stroke="none" 
	d="
M630.702271,789.749695 
	C630.206909,789.919922 629.499268,789.934570 628.438843,789.926697 
	C628.887390,789.800842 629.688660,789.697449 630.702271,789.749695 
z"/>
<path fill="#2F7DDA" opacity="1.000000" stroke="none" 
	d="
M503.702942,789.750610 
	C503.205933,789.923401 502.495605,789.940002 501.431030,789.936523 
	C501.881073,789.809082 502.685394,789.701782 503.702942,789.750610 
z"/>
<path fill="#2F7DDA" opacity="1.000000" stroke="none" 
	d="
M381.683441,789.723999 
	C381.196503,789.891968 380.500488,789.908875 379.458008,789.899170 
	C379.899139,789.772644 380.686737,789.672791 381.683441,789.723999 
z"/>
<path fill="#1C76D9" opacity="1.000000" stroke="none" 
	d="
M526.746521,558.824463 
	C526.233215,559.034607 525.488403,559.094910 524.375183,559.082703 
	C524.842834,558.898315 525.678955,558.786499 526.746521,558.824463 
z"/>
<path fill="#2F7DDA" opacity="1.000000" stroke="none" 
	d="
M4.248867,228.718384 
	C4.070679,228.216125 4.050910,227.498505 4.060431,226.423096 
	C4.195576,226.877884 4.301431,227.690460 4.248867,228.718384 
z"/>
<path fill="#2F7DDA" opacity="1.000000" stroke="none" 
	d="
M4.247720,291.719543 
	C4.070525,291.217438 4.051759,290.500305 4.063020,289.425720 
	C4.197414,289.880371 4.301782,290.692444 4.247720,291.719543 
z"/>
<path fill="#2F7DDA" opacity="1.000000" stroke="none" 
	d="
M4.240989,342.725342 
	C4.061589,342.220673 4.042893,341.500549 4.054605,340.421509 
	C4.190572,340.878357 4.296133,341.694122 4.240989,342.725342 
z"/>
<path fill="#2F7DDA" opacity="1.000000" stroke="none" 
	d="
M4.244100,348.721741 
	C4.064053,348.217621 4.043552,347.497437 4.051207,346.418030 
	C4.187458,346.874420 4.295552,347.690033 4.244100,348.721741 
z"/>
<path fill="#2F7DDA" opacity="1.000000" stroke="none" 
	d="
M4.251486,353.716125 
	C4.072393,353.214264 4.051078,352.496765 4.058022,351.421448 
	C4.193942,351.875946 4.301602,352.688232 4.251486,353.716125 
z"/>
<path fill="#2F7DDA" opacity="1.000000" stroke="none" 
	d="
M4.249452,523.718323 
	C4.072903,523.217163 4.054219,522.501343 4.066888,521.428894 
	C4.201266,521.882751 4.304291,522.693176 4.249452,523.718323 
z"/>
<path fill="#2F7DDA" opacity="1.000000" stroke="none" 
	d="
M386.731140,789.748901 
	C386.494934,789.884155 386.094574,789.899719 385.394531,789.899292 
	C385.585571,789.798645 386.076294,789.713928 386.731140,789.748901 
z"/>
<path fill="#1676DA" opacity="1.000000" stroke="none" 
	d="
M250.220215,431.222717 
	C250.631409,431.117493 251.265976,431.228790 252.058105,431.641876 
	C251.624954,431.775482 251.034271,431.607361 250.220215,431.222717 
z"/>
<path fill="#2F7DDA" opacity="1.000000" stroke="none" 
	d="
M4.222707,599.765869 
	C4.079580,599.519653 4.063119,599.103699 4.072010,598.376587 
	C4.181365,598.575623 4.265369,599.085876 4.222707,599.765869 
z"/>
<path fill="#2F7DDA" opacity="1.000000" stroke="none" 
	d="
M4.209506,313.774719 
	C4.063892,313.525513 4.048079,313.105408 4.057737,312.370972 
	C4.168575,312.572388 4.253941,313.088104 4.209506,313.774719 
z"/>
<path fill="#2F7DDA" opacity="1.000000" stroke="none" 
	d="
M4.217826,370.770386 
	C4.072432,370.522675 4.055643,370.105072 4.066117,369.375122 
	C4.177730,369.575317 4.262080,370.087891 4.217826,370.770386 
z"/>
<path fill="#4287DD" opacity="1.000000" stroke="none" 
	d="
M377.809692,417.601196 
	C377.620300,417.544037 377.603027,417.341492 377.838898,417.021362 
	C377.938110,417.101990 377.901367,417.286011 377.809692,417.601196 
z"/>
<path fill="#2F7DDA" opacity="1.000000" stroke="none" 
	d="
M4.169477,247.834412 
	C4.105666,247.936951 4.074904,247.500061 4.090920,247.281967 
	C4.275124,247.268051 4.317242,247.490707 4.169477,247.834412 
z"/>
<path fill="#2F7DDA" opacity="1.000000" stroke="none" 
	d="
M4.161058,516.840393 
	C4.094946,516.943420 4.066678,516.501831 4.084584,516.281555 
	C4.273738,516.268311 4.315299,516.493652 4.161058,516.840393 
z"/>
<path fill="#2F7DDA" opacity="1.000000" stroke="none" 
	d="
M4.163994,503.838257 
	C4.098403,503.941986 4.066840,503.499603 4.082360,503.278687 
	C4.271720,503.263702 4.315622,503.489288 4.163994,503.838257 
z"/>
<path fill="#2F7DDA" opacity="1.000000" stroke="none" 
	d="
M4.184242,481.827698 
	C4.121906,481.929382 4.086516,481.498230 4.101212,481.282715 
	C4.283981,481.267456 4.327538,481.487030 4.184242,481.827698 
z"/>
<path fill="#2F7DDA" opacity="1.000000" stroke="none" 
	d="
M368.812103,789.808960 
	C368.905304,789.868774 368.503998,789.887573 368.304504,789.871460 
	C368.294189,789.704407 368.498810,789.669006 368.812103,789.808960 
z"/>
<path fill="#3F85DD" opacity="1.000000" stroke="none" 
	d="
M522.555786,587.076050 
	C518.395935,587.492188 513.784546,587.981750 509.170380,588.009033 
	C502.023132,588.051208 494.873993,587.778015 487.366821,587.437439 
	C498.706329,587.138367 510.404633,587.040344 522.555786,587.076050 
z"/>
<path fill="#3F85DD" opacity="1.000000" stroke="none" 
	d="
M542.556885,587.070068 
	C537.248535,587.346558 531.487976,587.489685 525.367554,587.434937 
	C530.706665,587.137024 536.405640,587.036865 542.556885,587.070068 
z"/>
<path fill="#3F85DD" opacity="1.000000" stroke="none" 
	d="
M452.534241,587.211182 
	C447.272980,587.522522 441.562744,587.698486 435.483154,587.723999 
	C440.770935,587.407593 446.428131,587.241699 452.534241,587.211182 
z"/>
<path fill="#3F85DD" opacity="1.000000" stroke="none" 
	d="
M470.555756,587.095581 
	C465.923889,587.383057 460.839844,587.541565 455.392853,587.516968 
	C460.054443,587.211426 465.079041,587.089050 470.555756,587.095581 
z"/>
<path fill="#3F85DD" opacity="1.000000" stroke="none" 
	d="
M484.560547,587.100220 
	C481.238770,587.361084 477.472717,587.486328 473.355286,587.415344 
	C476.708008,587.134277 480.412170,587.049377 484.560547,587.100220 
z"/>
<path fill="#3F85DD" opacity="1.000000" stroke="none" 
	d="
M548.649231,587.030151 
	C548.156860,587.278442 547.295593,587.404724 546.213196,587.353149 
	C546.754822,587.086243 547.517578,586.997192 548.649231,587.030151 
z"/>
<path fill="#3F85DD" opacity="1.000000" stroke="none" 
	d="
M554.650452,587.003784 
	C554.155212,587.257141 553.292419,587.377747 552.209717,587.319458 
	C552.754211,587.050781 553.518555,586.960938 554.650452,587.003784 
z"/>
<path fill="#3F85DD" opacity="1.000000" stroke="none" 
	d="
M569.259521,558.564087 
	C569.207825,558.232117 569.453491,558.152771 569.859436,558.350281 
	C569.807312,558.510620 569.653015,558.573853 569.259521,558.564087 
z"/>
<path fill="#3F85DD" opacity="1.000000" stroke="none" 
	d="
M571.762085,586.987915 
	C572.022217,587.075500 571.652100,587.347595 571.652100,587.347595 
	C571.652100,587.347595 571.194580,587.301392 571.086792,587.184570 
	C571.153259,587.011902 571.327576,586.956116 571.762085,586.987915 
z"/>
<path fill="#4287DD" opacity="1.000000" stroke="none" 
	d="
M266.068298,431.768188 
	C265.996552,431.901978 265.757202,431.935974 265.157166,431.927887 
	C265.164520,431.813354 265.532593,431.740906 266.068298,431.768188 
z"/>
<path fill="#4287DD" opacity="1.000000" stroke="none" 
	d="
M276.251099,431.626434 
	C276.157135,431.792389 275.840973,431.827362 275.047729,431.824219 
	C275.056702,431.689240 275.542816,431.592346 276.251099,431.626434 
z"/>
<path fill="#3F85DD" opacity="1.000000" stroke="none" 
	d="
M190.614563,268.180542 
	C189.848785,268.448486 188.695923,268.593384 187.289581,268.567474 
	C188.099899,268.283600 189.163696,268.170563 190.614563,268.180542 
z"/>
<path fill="#3F85DD" opacity="1.000000" stroke="none" 
	d="
M193.763153,268.192108 
	C194.024689,268.278595 193.660416,268.557343 193.660416,268.557343 
	C193.660416,268.557343 193.204056,268.522736 193.094208,268.408997 
	C193.156769,268.232056 193.329193,268.168823 193.763153,268.192108 
z"/>
<path fill="#3F85DD" opacity="1.000000" stroke="none" 
	d="
M119.643417,292.424500 
	C129.816833,292.238525 140.427719,292.176636 151.412354,292.229034 
	C141.217682,292.411743 130.649277,292.480194 119.643417,292.424500 
z"/>
<path fill="#3F85DD" opacity="1.000000" stroke="none" 
	d="
M141.655579,431.489716 
	C141.057266,431.744537 140.132492,431.850128 138.871841,431.823547 
	C139.467010,431.574432 140.398056,431.457458 141.655579,431.489716 
z"/>
<path fill="#3F85DD" opacity="1.000000" stroke="none" 
	d="
M134.154114,431.595215 
	C133.783844,431.815704 133.153259,431.886047 132.054291,431.851807 
	C132.355194,431.646484 133.124496,431.545746 134.154114,431.595215 
z"/>
<path fill="#3F85DD" opacity="1.000000" stroke="none" 
	d="
M196.694641,292.295349 
	C196.802200,292.129913 197.151108,292.118896 198.025650,292.122864 
	C198.012848,292.241760 197.474411,292.345764 196.694641,292.295349 
z"/>
<path fill="#3F85DD" opacity="1.000000" stroke="none" 
	d="
M108.968521,431.841797 
	C108.904419,431.985840 108.710648,432.028290 108.223778,432.017487 
	C108.184036,431.729919 108.486763,431.655212 108.968521,431.841797 
z"/>
<path fill="#3F85DD" opacity="1.000000" stroke="none" 
	d="
M113.023575,431.789246 
	C112.952202,431.943054 112.733849,431.985107 112.186203,431.971313 
	C112.196800,431.836151 112.536705,431.756805 113.023575,431.789246 
z"/>
<path fill="#4287DD" opacity="1.000000" stroke="none" 
	d="
M593.895386,432.534607 
	C600.297363,423.650879 599.007751,413.572449 598.297058,403.621094 
	C597.953552,398.812103 597.288086,394.026154 596.770203,389.229553 
	C596.464355,386.396515 597.398865,385.026459 600.585815,384.913422 
	C609.207642,384.607758 611.961365,386.134247 612.746338,394.775269 
	C613.782349,406.179901 614.228516,417.688568 614.031921,429.137146 
	C613.897583,436.959442 609.500000,442.991638 602.353088,446.487396 
	C591.161011,451.961670 579.524719,455.593384 566.804443,454.112183 
	C559.938293,453.312683 552.987183,453.015656 546.203918,451.780426 
	C532.552368,449.294556 525.132996,440.345459 524.394897,426.939148 
	C523.731506,414.890686 524.672607,402.746613 525.068481,390.650024 
	C525.273438,384.390106 530.028992,385.820679 533.888245,385.737946 
	C537.894531,385.652039 540.185120,387.045929 540.030945,391.496521 
	C539.777588,398.813171 539.382996,406.155151 539.739563,413.452667 
	C540.004089,418.866547 541.198242,424.263031 542.351624,429.586334 
	C542.651428,430.969940 544.132812,432.421356 545.450989,433.193878 
	C548.302612,434.864899 551.399902,436.116669 554.840149,438.073547 
	C556.903503,439.322876 558.561279,440.726959 560.137024,440.640320 
	C569.021057,440.151642 577.949219,439.711151 586.717407,438.332581 
	C589.348877,437.918793 591.515686,434.549744 593.895386,432.534607 
z"/>
<path fill="#2F7DDA" opacity="1.000000" stroke="none" 
	d="
M593.579712,432.718323 
	C591.515686,434.549744 589.348877,437.918793 586.717407,438.332581 
	C577.949219,439.711151 569.021057,440.151642 560.137024,440.640320 
	C558.561279,440.726959 556.903503,439.322876 555.135498,438.269104 
	C561.752441,438.268372 568.522644,438.946777 575.281067,438.845062 
	C581.773254,438.747406 587.976562,437.018158 593.579712,432.718323 
z"/>
<path fill="#3F85DD" opacity="1.000000" stroke="none" 
	d="
M670.023987,267.647919 
	C655.310364,267.919739 640.184509,268.095490 625.058350,268.128632 
	C600.613464,268.182220 576.168335,268.150269 551.723328,268.126160 
	C549.738831,268.124176 547.754517,267.905029 545.406311,267.601807 
	C549.682068,267.328522 554.321838,267.154541 558.961182,267.165558 
	C595.844727,267.253113 632.728149,267.375885 670.023987,267.647919 
z"/>
<path fill="#3F85DD" opacity="1.000000" stroke="none" 
	d="
M541.599976,267.272003 
	C540.829224,267.516296 539.676941,267.626282 538.277344,267.559967 
	C539.092834,267.301697 540.155640,267.219727 541.599976,267.272003 
z"/>
</svg>